<?xml version="1.0" standalone="no"?>
<!DOCTYPE svg PUBLIC "-//W3C//DTD SVG 20010904//EN"
 "http://www.w3.org/TR/2001/REC-SVG-20010904/DTD/svg10.dtd">
<svg version="1.0" xmlns="http://www.w3.org/2000/svg"
 width="700.000000pt" height="700.000000pt" viewBox="0 0 700.000000 700.000000"
 preserveAspectRatio="xMidYMid meet">
<metadata>
Created by potrace 1.11, written by Peter Selinger 2001-2013
</metadata>
<g transform="translate(0.000000,700.000000) scale(0.100000,-0.100000)"
fill="#000000" stroke="none">
<path d="M4340 6430 c0 -5 6 -29 14 -52 42 -123 60 -216 60 -308 -1 -150 -4
-158 -441 -1110 -54 -118 -224 -490 -249 -545 -35 -79 -46 -132 -50 -248 -3
-99 -2 -108 14 -103 9 3 40 8 67 12 162 22 186 34 335 168 293 262 633 481
990 636 41 18 93 40 115 50 229 102 537 204 705 234 121 21 153 26 205 31 68
6 274 6 320 0 17 -2 72 -9 123 -16 84 -11 98 -11 145 6 43 14 196 82 205 89 5
5 -82 232 -98 256 -9 14 -20 33 -23 42 -13 35 -129 91 -262 125 -84 22 -280
21 -365 -1 -36 -10 -74 -19 -84 -21 -37 -8 -123 -38 -296 -105 -96 -37 -239
-88 -317 -114 -158 -51 -306 -114 -553 -233 -91 -44 -189 -91 -218 -103 l-53
-23 -25 24 -25 25 32 60 c55 103 131 236 247 432 99 165 133 268 128 387 -4
112 -73 218 -180 278 -75 42 -132 58 -393 113 -12 2 -34 9 -48 14 -15 6 -25 6
-25 0z"/>
<path d="M1645 5681 c-73 -18 -82 -26 -240 -211 -50 -58 -92 -107 -95 -110 -3
-3 -75 -86 -160 -185 -85 -99 -159 -185 -165 -191 -5 -6 -32 -37 -60 -70 -357
-418 -408 -474 -621 -691 -249 -252 -293 -320 -281 -438 7 -65 26 -108 81
-181 87 -116 212 -214 272 -214 52 0 84 19 164 96 41 40 149 129 240 199 91
69 172 131 180 138 41 34 701 527 706 527 7 0 -9 -271 -21 -360 -3 -19 -7 -60
-10 -90 -5 -51 -31 -254 -40 -310 -2 -14 -7 -45 -10 -70 -4 -25 -9 -61 -11
-80 -3 -19 -7 -46 -9 -60 -2 -14 -6 -43 -10 -65 -6 -43 -9 -62 -25 -195 -13
-100 -19 -150 -25 -205 -7 -63 -16 -138 -20 -165 -2 -14 -6 -54 -10 -90 -3
-36 -8 -81 -10 -100 -3 -19 -7 -62 -10 -95 -3 -33 -8 -80 -11 -105 -19 -159
-8 -316 30 -420 53 -144 194 -284 368 -365 71 -33 91 -32 148 10 110 81 142
139 170 311 25 151 29 172 34 199 2 11 7 42 10 68 4 27 9 57 11 67 5 24 11 64
30 200 9 63 18 126 20 140 2 14 7 45 10 70 3 25 8 56 10 70 2 14 7 50 10 80 4
30 9 64 11 75 2 11 7 47 10 80 4 33 8 63 10 66 12 21 15 144 4 188 -13 55 -23
67 -59 73 -25 3 -20 11 -116 -167 -18 -33 -65 -122 -104 -197 -70 -133 -82
-150 -108 -154 -15 -3 -16 0 -3 101 5 44 11 103 14 130 16 145 35 242 81 395
140 468 347 889 627 1277 49 67 94 128 101 135 74 79 154 206 161 253 14 106
-125 246 -244 246 -71 1 -114 -20 -365 -178 -288 -181 -307 -193 -420 -248
-104 -52 -345 -137 -345 -122 0 30 187 342 220 367 4 3 26 34 50 69 107 159
97 337 -24 449 -64 59 -89 68 -151 53z"/>
<path d="M4792 4368 c-23 -18 -42 -35 -42 -39 0 -3 26 -26 58 -50 67 -53 123
-131 154 -214 18 -49 22 -83 22 -185 1 -114 -6 -226 -19 -290 -3 -14 -7 -72
-10 -130 -5 -98 -7 -135 -20 -315 -5 -75 -14 -168 -20 -225 -2 -19 -7 -64 -10
-100 -3 -36 -8 -76 -10 -90 -2 -14 -7 -45 -10 -70 -3 -25 -11 -74 -16 -110 -6
-36 -12 -74 -13 -85 -2 -11 -6 -33 -9 -50 -4 -16 -9 -43 -12 -60 -19 -115 -72
-327 -119 -480 -120 -390 -240 -591 -476 -796 -105 -91 -262 -186 -425 -256
-139 -61 -167 -75 -231 -113 -38 -23 -80 -49 -93 -57 l-23 -15 36 -25 c56 -38
103 -50 155 -42 25 4 66 10 91 13 25 3 54 8 65 10 11 2 43 7 70 10 28 4 109
16 180 27 72 11 146 22 165 25 181 27 409 70 476 90 203 59 348 187 418 371
14 37 28 83 31 102 3 19 8 37 10 41 2 3 6 30 10 60 3 30 8 62 10 70 2 8 6 33
10 55 5 37 12 82 21 130 2 11 11 56 19 100 8 44 17 99 20 123 3 23 8 61 11 85
3 23 7 62 9 87 7 85 16 185 20 225 2 22 7 78 10 125 4 47 8 101 10 120 2 19 6
76 10 125 4 50 8 106 10 125 2 19 6 73 10 120 5 79 9 122 20 225 2 22 7 76 10
120 4 44 10 107 15 140 12 97 5 321 -14 410 -44 200 -144 384 -292 537 -47 48
-123 97 -244 156 -3 1 -25 -12 -48 -30z"/>
</g>
</svg>
